<svg width="41" height="41" viewBox="0 0 41 41" fill="none" xmlns="http://www.w3.org/2000/svg">
<path d="M20.5 3.41667C11.07 3.41667 3.41666 11.07 3.41666 20.5C3.41666 29.93 11.07 37.5833 20.5 37.5833C29.93 37.5833 37.5833 29.93 37.5833 20.5C37.5833 11.07 29.93 3.41667 20.5 3.41667ZM20.5 8.54167C23.3358 8.54167 25.625 10.8308 25.625 13.6667C25.625 16.5025 23.3358 18.7917 20.5 18.7917C17.6642 18.7917 15.375 16.5025 15.375 13.6667C15.375 10.8308 17.6642 8.54167 20.5 8.54167ZM20.5 32.8C18.4703 32.8 16.4721 32.2977 14.6836 31.3379C12.8951 30.3781 11.372 28.9906 10.25 27.2992C10.3012 23.8996 17.0833 22.0375 20.5 22.0375C23.8996 22.0375 30.6987 23.8996 30.75 27.2992C29.628 28.9906 28.1049 30.3781 26.3164 31.3379C24.5279 32.2977 22.5297 32.8 20.5 32.8Z" fill="white"/>
</svg>
