<svg width="58" height="58" viewBox="0 0 58 58" fill="none" xmlns="http://www.w3.org/2000/svg">
<path d="M23.1998 26.1C25.5072 26.1 27.7201 25.1833 29.3516 23.5518C30.9832 21.9202 31.8998 19.7073 31.8998 17.4C31.8998 15.0926 30.9832 12.8797 29.3516 11.2481C27.7201 9.61656 25.5072 8.69995 23.1998 8.69995C20.8924 8.69995 18.6795 9.61656 17.048 11.2481C15.4164 12.8797 14.4998 15.0926 14.4998 17.4C14.4998 19.7073 15.4164 21.9202 17.048 23.5518C18.6795 25.1833 20.8924 26.1 23.1998 26.1ZM23.1998 31.9C27.8146 31.9 32.2403 33.7332 35.5035 36.9963C38.7666 40.2594 40.5998 44.6852 40.5998 49.3H5.7998C5.7998 44.6852 7.63301 40.2594 10.8961 36.9963C14.1593 33.7332 18.585 31.9 23.1998 31.9ZM46.3998 20.3C46.3998 19.5308 46.0943 18.7932 45.5504 18.2493C45.0066 17.7055 44.2689 17.4 43.4998 17.4C42.7307 17.4 41.9931 17.7055 41.4492 18.2493C40.9053 18.7932 40.5998 19.5308 40.5998 20.3V23.2H37.6998C36.9307 23.2 36.1931 23.5055 35.6492 24.0493C35.1053 24.5932 34.7998 25.3308 34.7998 26.1C34.7998 26.8691 35.1053 27.6067 35.6492 28.1506C36.1931 28.6944 36.9307 29 37.6998 29H40.5998V31.9C40.5998 32.6691 40.9053 33.4067 41.4492 33.9506C41.9931 34.4944 42.7307 34.8 43.4998 34.8C44.2689 34.8 45.0066 34.4944 45.5504 33.9506C46.0943 33.4067 46.3998 32.6691 46.3998 31.9V29H49.2998C50.0689 29 50.8066 28.6944 51.3504 28.1506C51.8943 27.6067 52.1998 26.8691 52.1998 26.1C52.1998 25.3308 51.8943 24.5932 51.3504 24.0493C50.8066 23.5055 50.0689 23.2 49.2998 23.2H46.3998V20.3Z" fill="white"/>
</svg>
