<svg width="89" height="89" viewBox="0 0 89 89" fill="none" xmlns="http://www.w3.org/2000/svg">
<path d="M70.4585 40.7916H26.4777L39.9389 24.6233C40.5684 23.866 40.8712 22.8897 40.7808 21.9091C40.6904 20.9285 40.2141 20.024 39.4568 19.3945C38.6995 18.7651 37.7232 18.4623 36.7426 18.5527C35.762 18.6431 34.8575 19.1193 34.2281 19.8766L15.6864 42.1266C15.5617 42.3036 15.4501 42.4895 15.3527 42.6829C15.3527 42.8683 15.3527 42.9795 15.0931 43.165C14.925 43.5902 14.837 44.0428 14.8335 44.5C14.837 44.9572 14.925 45.4098 15.0931 45.835C15.0931 46.0204 15.0931 46.1316 15.3527 46.317C15.4501 46.5104 15.5617 46.6963 15.6864 46.8733L34.2281 69.1233C34.5767 69.5419 35.0134 69.8785 35.5069 70.1093C36.0004 70.34 36.5387 70.4592 37.0835 70.4583C37.95 70.46 38.7897 70.1582 39.4568 69.6054C39.8323 69.2941 40.1427 68.9117 40.3702 68.4803C40.5977 68.0488 40.7379 67.5767 40.7827 67.091C40.8275 66.6053 40.776 66.1156 40.6312 65.6498C40.4864 65.184 40.2512 64.7514 39.9389 64.3766L26.4777 48.2083H70.4585C71.442 48.2083 72.3852 47.8176 73.0807 47.1222C73.7761 46.4267 74.1668 45.4835 74.1668 44.5C74.1668 43.5165 73.7761 42.5732 73.0807 41.8778C72.3852 41.1823 71.442 40.7916 70.4585 40.7916Z" fill="black"/>
</svg>
