<svg width="41" height="40" viewBox="0 0 41 40" fill="none" xmlns="http://www.w3.org/2000/svg">
<path d="M26.1375 35C26.5453 35 26.9363 34.842 27.2247 34.5607C27.513 34.2794 27.675 33.8978 27.675 33.5C27.675 33.1022 27.513 32.7206 27.2247 32.4393C26.9363 32.158 26.5453 32 26.1375 32H13.325C12.2376 32 11.1948 31.5786 10.4259 30.8284C9.65696 30.0783 9.22499 29.0609 9.22499 28V12C9.22499 10.9391 9.65696 9.92172 10.4259 9.17157C11.1948 8.42143 12.2376 8 13.325 8H26.1375C26.5453 8 26.9363 7.84196 27.2247 7.56066C27.513 7.27936 27.675 6.89782 27.675 6.5C27.675 6.10218 27.513 5.72064 27.2247 5.43934C26.9363 5.15804 26.5453 5 26.1375 5H13.325C11.4221 5 9.59708 5.7375 8.2515 7.05025C6.90593 8.36301 6.14999 10.1435 6.14999 12V28C6.14999 29.8565 6.90593 31.637 8.2515 32.9497C9.59708 34.2625 11.4221 35 13.325 35H26.1375ZM28.169 12.398C28.3174 12.2643 28.4912 12.1604 28.6807 12.0922C28.8702 12.0241 29.0716 11.993 29.2734 12.0008C29.4752 12.0086 29.6734 12.0551 29.8568 12.1377C30.0401 12.2203 30.205 12.3373 30.342 12.482L36.492 18.982C36.7546 19.2591 36.9003 19.6226 36.9003 20C36.9003 20.3774 36.7546 20.7409 36.492 21.018L30.342 27.518C30.065 27.81 29.6805 27.9827 29.273 27.9981C28.8654 28.0134 28.4683 27.8703 28.169 27.6C27.8697 27.3297 27.6927 26.9546 27.677 26.557C27.6612 26.1594 27.808 25.772 28.085 25.48L31.8529 21.498H15.8875C15.4797 21.498 15.0887 21.34 14.8003 21.0587C14.512 20.7774 14.35 20.3958 14.35 19.998C14.35 19.6002 14.512 19.2186 14.8003 18.9373C15.0887 18.656 15.4797 18.498 15.8875 18.498H31.8508L28.0829 14.516C27.9459 14.3713 27.8394 14.2017 27.7695 14.0168C27.6997 13.8319 27.6679 13.6355 27.6759 13.4386C27.6838 13.2417 27.7315 13.0483 27.8161 12.8694C27.9008 12.6905 28.0207 12.5297 28.169 12.396V12.398Z" fill="white"/>
</svg>
