<svg width="58" height="51" viewBox="0 0 58 51" fill="none" xmlns="http://www.w3.org/2000/svg">
<path d="M0 7.28571C0 5.35342 0.763837 3.50027 2.12348 2.13394C3.48311 0.7676 5.32718 0 7.25 0H50.75C52.6728 0 54.5169 0.7676 55.8765 2.13394C57.2362 3.50027 58 5.35342 58 7.28571V43.7143C58 45.6466 57.2362 47.4997 55.8765 48.8661C54.5169 50.2324 52.6728 51 50.75 51H7.25C5.32718 51 3.48311 50.2324 2.12348 48.8661C0.763837 47.4997 0 45.6466 0 43.7143V7.28571ZM3.625 40.0714V43.7143C3.625 44.6804 4.00692 45.607 4.68674 46.2902C5.36656 46.9733 6.28859 47.3571 7.25 47.3571H50.75C51.7114 47.3571 52.6334 46.9733 53.3133 46.2902C53.9931 45.607 54.375 44.6804 54.375 43.7143V30.9643L40.6834 23.8716C40.3434 23.7005 39.9585 23.6411 39.5832 23.7019C39.2078 23.7627 38.861 23.9406 38.5918 24.2104L25.143 37.7254L15.5005 31.2703C15.1524 31.0374 14.7348 30.9326 14.3185 30.9738C13.9023 31.0149 13.513 31.1995 13.2168 31.4961L3.625 40.0714ZM21.75 16.3929C21.75 14.9436 21.1771 13.5538 20.1574 12.529C19.1377 11.5043 17.7546 10.9286 16.3125 10.9286C14.8704 10.9286 13.4873 11.5043 12.4676 12.529C11.4479 13.5538 10.875 14.9436 10.875 16.3929C10.875 17.8421 11.4479 19.2319 12.4676 20.2567C13.4873 21.2814 14.8704 21.8571 16.3125 21.8571C17.7546 21.8571 19.1377 21.2814 20.1574 20.2567C21.1771 19.2319 21.75 17.8421 21.75 16.3929Z" fill="white"/>
</svg>
