<svg width="41" height="41" viewBox="0 0 41 41" fill="none" xmlns="http://www.w3.org/2000/svg">
<path d="M17.9375 37.5833C8.97438 37.5833 1.70834 29.9349 1.70834 20.5C1.70834 11.0651 8.97438 3.41667 17.9375 3.41667C26.9006 3.41667 34.1667 11.0651 34.1667 20.5C34.1667 29.9349 26.9006 37.5833 17.9375 37.5833Z" stroke="white" stroke-width="2" stroke-linecap="round" stroke-linejoin="round"/>
<path d="M22.2083 15.0333C21.1211 14.1517 19.7644 13.6693 18.3646 13.6667C14.8266 13.6667 11.9583 16.7246 11.9583 20.5C11.9583 24.2754 14.8266 27.3333 18.3646 27.3333C19.8064 27.3333 21.1372 26.8243 22.2083 25.9667" stroke="white" stroke-width="2" stroke-linecap="round" stroke-linejoin="round"/>
<path d="M17.0833 3.41667C24.4856 3.41667 39.2917 5.12501 39.2917 20.5C39.2917 35.875 24.4856 37.5833 17.0833 37.5833" stroke="white" stroke-width="2"/>
</svg>
