<svg width="42" height="42" viewBox="0 0 42 42" fill="none" xmlns="http://www.w3.org/2000/svg">
<path d="M29.0769 17.7692C29.0769 14.6562 27.9706 11.9934 25.7578 9.78065C23.5451 7.56791 20.8822 6.46154 17.7692 6.46154C14.6562 6.46154 11.9934 7.56791 9.78065 9.78065C7.56791 11.9934 6.46154 14.6562 6.46154 17.7692C6.46154 20.8822 7.56791 23.5451 9.78065 25.7578C11.9934 27.9706 14.6562 29.0769 17.7692 29.0769C20.8822 29.0769 23.5451 27.9706 25.7578 25.7578C27.9706 23.5451 29.0769 20.8822 29.0769 17.7692ZM42 38.7692C42 39.6442 41.6803 40.4014 41.0409 41.0409C40.4014 41.6803 39.6442 42 38.7692 42C37.8606 42 37.1034 41.6803 36.4976 41.0409L27.8401 32.4087C24.8281 34.4952 21.4712 35.5385 17.7692 35.5385C15.363 35.5385 13.0619 35.0715 10.866 34.1376C8.67007 33.2037 6.77704 31.9417 5.1869 30.3516C3.59675 28.7614 2.33474 26.8684 1.40084 24.6725C0.466947 22.4766 0 20.1755 0 17.7692C0 15.363 0.466947 13.0619 1.40084 10.866C2.33474 8.67007 3.59675 6.77704 5.1869 5.1869C6.77704 3.59675 8.67007 2.33474 10.866 1.40084C13.0619 0.466947 15.363 0 17.7692 0C20.1755 0 22.4766 0.466947 24.6725 1.40084C26.8684 2.33474 28.7614 3.59675 30.3516 5.1869C31.9417 6.77704 33.2037 8.67007 34.1376 10.866C35.0715 13.0619 35.5385 15.363 35.5385 17.7692C35.5385 21.4712 34.4952 24.8281 32.4087 27.8401L41.0661 36.4976C41.6887 37.1202 42 37.8774 42 38.7692Z" fill="white"/>
</svg>
