<svg width="41" height="41" viewBox="0 0 41 41" fill="none" xmlns="http://www.w3.org/2000/svg">
<path d="M37.0081 13.5492C36.1098 11.4052 34.8029 9.45649 33.1603 7.81162C31.5227 6.16388 29.5773 4.85384 27.4347 3.95586C25.2399 3.03148 22.8816 2.55765 20.5 2.5625H20.4199C17.9975 2.57451 15.6553 3.05498 13.4491 3.9999C11.3249 4.90709 9.39784 6.21946 7.77557 7.86367C6.14891 9.50485 4.85701 11.4468 3.97186 13.5812C3.05303 15.8009 2.58745 18.1818 2.60253 20.5841C2.61454 23.3628 3.27919 26.1215 4.5204 28.5879V34.6738C4.5204 35.6908 5.3452 36.5156 6.35819 36.5156H12.4361C14.914 37.766 17.6484 38.4239 20.4239 38.4375H20.508C22.9023 38.4375 25.2206 37.973 27.4067 37.0642C29.5384 36.1769 31.4765 34.8821 33.1123 33.2524C34.7619 31.6148 36.0592 29.701 36.968 27.5669C37.909 25.3567 38.3894 23.0064 38.4014 20.5801C38.4094 18.1417 37.937 15.7754 37.0081 13.5492ZM12.5082 22.4219C11.4512 22.4219 10.5903 21.561 10.5903 20.5C10.5903 19.439 11.4512 18.5781 12.5082 18.5781C13.5652 18.5781 14.4261 19.439 14.4261 20.5C14.4261 21.561 13.5692 22.4219 12.5082 22.4219ZM20.5 22.4219C19.443 22.4219 18.5821 21.561 18.5821 20.5C18.5821 19.439 19.443 18.5781 20.5 18.5781C21.557 18.5781 22.4179 19.439 22.4179 20.5C22.4179 21.561 21.557 22.4219 20.5 22.4219ZM28.4918 22.4219C27.4347 22.4219 26.5739 21.561 26.5739 20.5C26.5739 19.439 27.4347 18.5781 28.4918 18.5781C29.5488 18.5781 30.4096 19.439 30.4096 20.5C30.4096 21.561 29.5488 22.4219 28.4918 22.4219Z" fill="white"/>
</svg>
