<svg width="70" height="70" viewBox="0 0 70 70" fill="none" xmlns="http://www.w3.org/2000/svg">
<path d="M35 4.375C18.0879 4.375 4.375 18.0879 4.375 35C4.375 51.9121 18.0879 65.625 35 65.625C51.9121 65.625 65.625 51.9121 65.625 35C65.625 18.0879 51.9121 4.375 35 4.375ZM48.125 36.6406C48.125 36.9414 47.8789 37.1875 47.5781 37.1875H37.1875H36.3525C35.5 37.1875 35.8008 37.1875 35.5 37.1875H34.5C34.1992 37.1875 34.5 37.1875 33.3594 37.1875H32.8125H22.4219C22.1211 37.1875 21.875 36.9414 21.875 36.6406V33.3594C21.875 33.0586 22.1211 32.8125 22.4219 32.8125H32.8125H33.6511C34.5 32.8125 34.1992 32.8125 34.5 32.8125H35.2184C35.5192 32.8125 35.2184 32.8125 36 32.8125H37.1875H47.5781C47.8789 32.8125 48.125 33.0586 48.125 33.3594V36.6406Z" fill="#FB3349"/>
</svg>
