<svg width="37" height="37" viewBox="0 0 37 37" fill="none" xmlns="http://www.w3.org/2000/svg">
<path d="M18.5 1.05713C8.86748 1.05713 1.05713 8.86748 1.05713 18.5C1.05713 28.1325 8.86748 35.9428 18.5 35.9428C28.1325 35.9428 35.9428 28.1325 35.9428 18.5C35.9428 8.86748 28.1325 1.05713 18.5 1.05713ZM25.9755 19.4344C25.9755 19.6057 25.8353 19.7459 25.664 19.7459H19.7459V25.664C19.7459 25.8353 19.6057 25.9755 19.4344 25.9755H17.5655C17.3942 25.9755 17.2541 25.8353 17.2541 25.664V19.7459H11.336C11.1646 19.7459 11.0245 19.6057 11.0245 19.4344V17.5655C11.0245 17.3942 11.1646 17.2541 11.336 17.2541H17.2541V11.336C17.2541 11.1646 17.3942 11.0245 17.5655 11.0245H19.4344C19.6057 11.0245 19.7459 11.1646 19.7459 11.336V17.2541H25.664C25.8353 17.2541 25.9755 17.3942 25.9755 17.5655V19.4344Z" fill="#FCA311"/>
</svg>
