<svg width="48" height="42" viewBox="0 0 48 42" fill="none" xmlns="http://www.w3.org/2000/svg">
<path d="M18.1998 18.1C20.5072 18.1 22.7201 17.1834 24.3516 15.5518C25.9832 13.9203 26.8998 11.7074 26.8998 9.4C26.8998 7.09262 25.9832 4.87974 24.3516 3.24817C22.7201 1.61661 20.5072 0.700001 18.1998 0.700001C15.8924 0.700001 13.6795 1.61661 12.048 3.24817C10.4164 4.87974 9.49981 7.09262 9.49981 9.4C9.49981 11.7074 10.4164 13.9203 12.048 15.5518C13.6795 17.1834 15.8924 18.1 18.1998 18.1ZM18.1998 23.9C22.8146 23.9 27.2403 25.7332 30.5035 28.9963C33.7666 32.2595 35.5998 36.6852 35.5998 41.3H0.799805C0.799805 36.6852 2.63301 32.2595 5.89615 28.9963C9.15928 25.7332 13.585 23.9 18.1998 23.9ZM40 15.2C41.3998 15.2 41.3998 15.2 40 15.2C38.5217 15.2 39.2689 15.2 38.4998 15.2C37.7307 15.2 37.7553 15.2 36.4492 15.2C35.6704 15.2 36.4492 15.2 35.5998 15.2H32.6998C31.9307 15.2 31.1931 15.5055 30.6492 16.0494C30.1053 16.5932 29.7998 17.3309 29.7998 18.1C29.7998 18.8691 30.1053 19.6068 30.6492 20.1506C31.1931 20.6945 31.9307 21 32.6998 21H35.5998H36.4492C37.5 21 36.4492 21 37.5 21C38.5 21 37.7309 21 38.5 21C38.5 21 38.5 21 39 21C39.9621 21 39 21 40 21L41.3998 21H44.2998C45.0689 21 45.8066 20.6945 46.3504 20.1506C46.8943 19.6068 47.1998 18.8691 47.1998 18.1C47.1998 17.3309 46.8943 16.5932 46.3504 16.0494C45.8066 15.5055 45.0689 15.2 44.2998 15.2H41.3998H40Z" fill="white"/>
</svg>
