<svg width="41" height="41" viewBox="0 0 41 41" fill="none" xmlns="http://www.w3.org/2000/svg">
<path d="M4.48436 13.2396H21.4609C21.7077 14.445 22.3631 15.5282 23.3164 16.3062C24.2696 17.0841 25.4623 17.5089 26.6927 17.5089C27.9231 17.5089 29.1158 17.0841 30.069 16.3062C31.0223 15.5282 31.6777 14.445 31.9245 13.2396H36.5156C36.7988 13.2396 37.0704 13.1271 37.2706 12.9269C37.4708 12.7266 37.5833 12.4551 37.5833 12.1719C37.5833 11.8887 37.4708 11.6171 37.2706 11.4169C37.0704 11.2167 36.7988 11.1042 36.5156 11.1042H31.9245C31.6777 9.89877 31.0223 8.81554 30.069 8.03763C29.1158 7.25971 27.9231 6.83484 26.6927 6.83484C25.4623 6.83484 24.2696 7.25971 23.3164 8.03763C22.3631 8.81554 21.7077 9.89877 21.4609 11.1042H4.48436C4.20119 11.1042 3.92962 11.2167 3.72938 11.4169C3.52915 11.6171 3.41666 11.8887 3.41666 12.1719C3.41666 12.4551 3.52915 12.7266 3.72938 12.9269C3.92962 13.1271 4.20119 13.2396 4.48436 13.2396ZM4.48436 29.4688H9.28905C9.53579 30.6742 10.1912 31.7574 11.1445 32.5353C12.0978 33.3132 13.2904 33.7381 14.5208 33.7381C15.7512 33.7381 16.9439 33.3132 17.8972 32.5353C18.8504 31.7574 19.5059 30.6742 19.7526 29.4688H36.5156C36.7988 29.4688 37.0704 29.3563 37.2706 29.156C37.4708 28.9558 37.5833 28.6842 37.5833 28.4011C37.5833 28.1179 37.4708 27.8463 37.2706 27.6461C37.0704 27.4458 36.7988 27.3333 36.5156 27.3333H19.7526C19.5059 26.1279 18.8504 25.0447 17.8972 24.2668C16.9439 23.4889 15.7512 23.064 14.5208 23.064C13.2904 23.064 12.0978 23.4889 11.1445 24.2668C10.1912 25.0447 9.53579 26.1279 9.28905 27.3333H4.48436C4.20119 27.3333 3.92962 27.4458 3.72938 27.6461C3.52915 27.8463 3.41666 28.1179 3.41666 28.4011C3.41666 28.6842 3.52915 28.9558 3.72938 29.156C3.92962 29.3563 4.20119 29.4688 4.48436 29.4688Z" fill="white"/>
</svg>
